<svg width="34" height="34" viewBox="0 0 34 34" fill="none" xmlns="http://www.w3.org/2000/svg">
<path fill-rule="evenodd" clip-rule="evenodd" d="M19 1.875C19.2486 1.875 19.4871 1.97377 19.6629 2.14959C19.8387 2.3254 19.9375 2.56386 19.9375 2.8125V24.9244L25.8362 19.0237C26.0123 18.8477 26.251 18.7488 26.5 18.7488C26.7489 18.7488 26.9877 18.8477 27.1637 19.0237C27.3398 19.1998 27.4386 19.4385 27.4386 19.6875C27.4386 19.9365 27.3398 20.1752 27.1637 20.3513L19.6637 27.8513C19.5766 27.9386 19.4732 28.0078 19.3593 28.0551C19.2454 28.1023 19.1233 28.1267 19 28.1267C18.8766 28.1267 18.7545 28.1023 18.6407 28.0551C18.5268 28.0078 18.4233 27.9386 18.3362 27.8513L10.8362 20.3513C10.6602 20.1752 10.5613 19.9365 10.5613 19.6875C10.5613 19.4385 10.6602 19.1998 10.8362 19.0237C11.0123 18.8477 11.251 18.7488 11.5 18.7488C11.7489 18.7488 11.9877 18.8477 12.1637 19.0237L18.0625 24.9244V2.8125C18.0625 2.56386 18.1612 2.3254 18.3371 2.14959C18.5129 1.97377 18.7513 1.875 19 1.875V1.875Z" fill="#4F4F4F"/>
</svg>
