<svg width="31" height="24" viewBox="0 0 31 24" fill="none" xmlns="http://www.w3.org/2000/svg">
<path d="M18.2059 19C22.9099 19 25.2625 19 26.7233 17.828C28.1852 16.657 28.1852 14.771 28.1852 11C28.1852 7.229 28.1852 5.343 26.7233 4.172C25.2625 3 22.9099 3 18.2059 3H13.2162C8.51214 3 6.1595 3 4.69877 4.172C3.23679 5.343 3.23679 7.229 3.23679 11C3.23679 14.771 3.23679 16.657 4.69877 17.828C5.51333 18.482 6.60483 18.771 8.22648 18.898" stroke="#4F4F4F" stroke-width="2" stroke-linecap="round" stroke-linejoin="round"/>
<path d="M18.2059 19C16.664 19 14.9651 19.5 13.4145 20.145C10.9222 21.182 9.67598 21.701 9.06225 21.37C8.44851 21.04 8.56452 20.015 8.79779 17.966L8.85018 17.5" stroke="#4F4F4F" stroke-width="2" stroke-linecap="round"/>
</svg>
