<svg width="27" height="16" viewBox="0 0 27 16" fill="none" xmlns="http://www.w3.org/2000/svg">
<path d="M25.5165 6.962C26.1077 7.582 26.1077 8.419 25.5165 9.038C23.6541 10.987 19.1858 15 13.9691 15C8.75235 15 4.28408 10.987 2.42168 9.038C2.13401 8.74113 1.97784 8.37592 1.97784 8C1.97784 7.62408 2.13401 7.25887 2.42168 6.962C4.28408 5.013 8.75235 1 13.9691 1C19.1858 1 23.6541 5.013 25.5165 6.962V6.962Z" stroke="#4F4F4F" stroke-width="2" stroke-linecap="round" stroke-linejoin="round"/>
<path d="M13.9691 11C16.0359 11 17.7113 9.65685 17.7113 8C17.7113 6.34315 16.0359 5 13.9691 5C11.9023 5 10.2268 6.34315 10.2268 8C10.2268 9.65685 11.9023 11 13.9691 11Z" stroke="#4F4F4F" stroke-width="2" stroke-linecap="round" stroke-linejoin="round"/>
</svg>
